<svg width="430" height="217" viewBox="0 0 430 217" fill="none" xmlns="http://www.w3.org/2000/svg">
	<g opacity="0.1">
		<mask id="path-1-inside-1_41_1182" fill="white">
			<path d="M-58 23.5C-58 10.5213 -47.4787 -6.73576e-08 -34.5 0L-18.62 8.24151e-08C-5.64128 1.49773e-07 4.88004 10.5213 4.88004 23.5V27.3645H-58L-58 23.5Z" />
			<path d="M10.88 3.86445C10.88 16.8431 21.4014 27.3645 34.38 27.3645H50.2601C63.2388 27.3645 73.7601 16.8431 73.7601 3.86446V5.61855e-07L10.88 2.35516e-07V3.86445Z" />
			<path d="M79.7601 23.5C79.7601 10.5213 90.2814 6.47598e-07 103.26 7.14956e-07L119.14 7.97371e-07C132.119 8.64729e-07 142.64 10.5213 142.64 23.5V27.3645H79.7601V23.5Z" />
			<path d="M148.64 3.86446C148.64 16.8431 159.161 27.3645 172.14 27.3645H188.02C200.999 27.3645 211.52 16.8431 211.52 3.86446V1.27681e-06L148.64 9.50472e-07V3.86446Z" />
			<path d="M217.52 23.5C217.52 10.5213 228.041 1.36255e-06 241.02 1.42991e-06L256.9 1.51233e-06C269.879 1.57968e-06 280.4 10.5213 280.4 23.5V27.3645H217.52V23.5Z" />
			<path d="M286.4 3.86446C286.4 16.8431 296.922 27.3645 309.9 27.3645H325.78C338.759 27.3645 349.28 16.8432 349.28 3.86446V1.99177e-06L286.4 1.66543e-06V3.86446Z" />
			<path d="M355.28 23.5C355.28 10.5213 365.802 2.07751e-06 378.78 2.14487e-06L394.66 2.22728e-06C407.639 2.29464e-06 418.16 10.5213 418.16 23.5V27.3645H355.28V23.5Z" />
			<path d="M424.16 3.86446C424.16 16.8431 434.682 27.3645 447.66 27.3645H463.54C476.519 27.3645 487.04 16.8432 487.04 3.86446V2.70672e-06L424.16 2.38038e-06V3.86446Z" />
			<path d="M-58 37.2289C-58 50.2076 -47.4787 60.7289 -34.5 60.7289H-18.62C-5.64128 60.7289 4.88004 50.2076 4.88004 37.2289V33.3644H-58L-58 37.2289Z" />
			<path d="M10.88 56.8644C10.88 43.8858 21.4014 33.3644 34.38 33.3644H50.2601C63.2388 33.3644 73.7601 43.8858 73.7601 56.8644V60.7289H10.88V56.8644Z" />
			<path d="M79.7601 37.2289C79.7601 50.2076 90.2814 60.7289 103.26 60.7289H119.14C132.119 60.7289 142.64 50.2076 142.64 37.2289V33.3644H79.7601V37.2289Z" />
			<path d="M148.64 56.8644C148.64 43.8858 159.161 33.3644 172.14 33.3644H188.02C200.999 33.3644 211.52 43.8858 211.52 56.8644V60.7289H148.64V56.8644Z" />
			<path d="M217.52 37.2289C217.52 50.2076 228.041 60.7289 241.02 60.7289H256.9C269.879 60.7289 280.4 50.2076 280.4 37.2289V33.3644H217.52V37.2289Z" />
			<path d="M286.4 56.8644C286.4 43.8858 296.922 33.3644 309.9 33.3644H325.78C338.759 33.3644 349.28 43.8858 349.28 56.8644V60.7289H286.4V56.8644Z" />
			<path d="M355.28 37.2289C355.28 50.2076 365.802 60.7289 378.78 60.7289H394.66C407.639 60.7289 418.16 50.2076 418.16 37.2289V33.3644H355.28V37.2289Z" />
			<path d="M424.16 56.8644C424.16 43.8858 434.682 33.3644 447.66 33.3644H463.54C476.519 33.3644 487.04 43.8858 487.04 56.8644V60.7289H424.16V56.8644Z" />
			<path d="M-58 90.2289C-58 77.2502 -47.4787 66.7289 -34.5 66.7289H-18.62C-5.64128 66.7289 4.88004 77.2502 4.88004 90.2289V94.0934H-58L-58 90.2289Z" />
			<path d="M10.88 70.5934C10.88 83.5721 21.4014 94.0934 34.38 94.0934H50.2601C63.2388 94.0934 73.7601 83.5721 73.7601 70.5934V66.7289H10.88V70.5934Z" />
			<path d="M79.7601 90.2289C79.7601 77.2502 90.2814 66.7289 103.26 66.7289H119.14C132.119 66.7289 142.64 77.2502 142.64 90.2289V94.0934H79.7601V90.2289Z" />
			<path d="M148.64 70.5934C148.64 83.5721 159.161 94.0934 172.14 94.0934H188.02C200.999 94.0934 211.52 83.5721 211.52 70.5934V66.7289H148.64V70.5934Z" />
			<path d="M217.52 90.2289C217.52 77.2502 228.041 66.7289 241.02 66.7289H256.9C269.879 66.7289 280.4 77.2502 280.4 90.2289V94.0934H217.52V90.2289Z" />
			<path d="M286.4 70.5934C286.4 83.5721 296.922 94.0934 309.9 94.0934H325.78C338.759 94.0934 349.28 83.5721 349.28 70.5934V66.7289H286.4V70.5934Z" />
			<path d="M355.28 90.2289C355.28 77.2502 365.802 66.7289 378.78 66.7289H394.66C407.639 66.7289 418.16 77.2502 418.16 90.2289V94.0934H355.28V90.2289Z" />
			<path d="M424.16 70.5934C424.16 83.5721 434.682 94.0934 447.66 94.0934H463.54C476.519 94.0934 487.04 83.5721 487.04 70.5934V66.7289H424.16V70.5934Z" />
			<path d="M-58 103.958C-58 116.937 -47.4787 127.458 -34.5 127.458H-18.62C-5.64128 127.458 4.88004 116.937 4.88004 103.958V100.093H-58L-58 103.958Z" />
			<path d="M10.88 123.593C10.88 110.615 21.4014 100.093 34.38 100.093H50.2601C63.2388 100.093 73.7601 110.615 73.7601 123.593V127.458H10.88V123.593Z" />
			<path d="M79.7601 103.958C79.7601 116.937 90.2814 127.458 103.26 127.458H119.14C132.119 127.458 142.64 116.937 142.64 103.958V100.093H79.7601V103.958Z" />
			<path d="M148.64 123.593C148.64 110.615 159.161 100.093 172.14 100.093H188.02C200.999 100.093 211.52 110.615 211.52 123.593V127.458H148.64V123.593Z" />
			<path d="M217.52 103.958C217.52 116.937 228.041 127.458 241.02 127.458H256.9C269.879 127.458 280.4 116.937 280.4 103.958V100.093H217.52V103.958Z" />
			<path d="M286.4 123.593C286.4 110.615 296.922 100.093 309.9 100.093H325.78C338.759 100.093 349.28 110.615 349.28 123.593V127.458H286.4V123.593Z" />
			<path d="M355.28 103.958C355.28 116.937 365.802 127.458 378.78 127.458H394.66C407.639 127.458 418.16 116.937 418.16 103.958V100.093H355.28V103.958Z" />
			<path d="M424.16 123.593C424.16 110.615 434.682 100.093 447.66 100.093H463.54C476.519 100.093 487.04 110.615 487.04 123.593V127.458H424.16V123.593Z" />
			<path d="M-58 156.958C-58 143.979 -47.4787 133.458 -34.5 133.458H-18.62C-5.64128 133.458 4.88004 143.979 4.88004 156.958V160.822H-58L-58 156.958Z" />
			<path d="M10.88 137.322C10.88 150.301 21.4014 160.822 34.38 160.822H50.2601C63.2388 160.822 73.7601 150.301 73.7601 137.322V133.458H10.88V137.322Z" />
			<path d="M79.7601 156.958C79.7601 143.979 90.2814 133.458 103.26 133.458H119.14C132.119 133.458 142.64 143.979 142.64 156.958V160.822H79.7601V156.958Z" />
			<path d="M148.64 137.322C148.64 150.301 159.161 160.822 172.14 160.822H188.02C200.999 160.822 211.52 150.301 211.52 137.322V133.458H148.64V137.322Z" />
			<path d="M217.52 156.958C217.52 143.979 228.041 133.458 241.02 133.458H256.9C269.879 133.458 280.4 143.979 280.4 156.958V160.822H217.52V156.958Z" />
			<path d="M286.4 137.322C286.4 150.301 296.922 160.822 309.9 160.822H325.78C338.759 160.822 349.28 150.301 349.28 137.322V133.458H286.4V137.322Z" />
			<path d="M355.28 156.958C355.28 143.979 365.802 133.458 378.78 133.458H394.66C407.639 133.458 418.16 143.979 418.16 156.958V160.822H355.28V156.958Z" />
			<path d="M424.16 137.322C424.16 150.301 434.682 160.822 447.66 160.822H463.54C476.519 160.822 487.04 150.301 487.04 137.322V133.458H424.16V137.322Z" />
			<path d="M-58 170.687C-58 183.665 -47.4787 194.187 -34.5 194.187H-18.62C-5.64128 194.187 4.88004 183.665 4.88004 170.687V166.822H-58L-58 170.687Z" />
			<path d="M10.88 190.322C10.88 177.344 21.4014 166.822 34.38 166.822H50.2601C63.2388 166.822 73.7601 177.344 73.7601 190.322V194.187H10.88V190.322Z" />
			<path d="M79.7601 170.687C79.7601 183.665 90.2814 194.187 103.26 194.187H119.14C132.119 194.187 142.64 183.665 142.64 170.687V166.822H79.7601V170.687Z" />
			<path d="M148.64 190.322C148.64 177.344 159.161 166.822 172.14 166.822H188.02C200.999 166.822 211.52 177.344 211.52 190.322V194.187H148.64V190.322Z" />
			<path d="M217.52 170.687C217.52 183.665 228.041 194.187 241.02 194.187H256.9C269.879 194.187 280.4 183.665 280.4 170.687V166.822H217.52V170.687Z" />
			<path d="M286.4 190.322C286.4 177.344 296.922 166.822 309.9 166.822H325.78C338.759 166.822 349.28 177.344 349.28 190.322V194.187H286.4V190.322Z" />
			<path d="M355.28 170.687C355.28 183.665 365.802 194.187 378.78 194.187H394.66C407.639 194.187 418.16 183.665 418.16 170.687V166.822H355.28V170.687Z" />
			<path d="M424.16 190.322C424.16 177.344 434.682 166.822 447.66 166.822H463.54C476.519 166.822 487.04 177.344 487.04 190.322V194.187H424.16V190.322Z" />
			<path d="M-58 223.687C-58 210.708 -47.4787 200.187 -34.5 200.187H-18.62C-5.64128 200.187 4.88004 210.708 4.88004 223.687V227.551H-58L-58 223.687Z" />
			<path d="M10.88 204.051C10.88 217.03 21.4014 227.551 34.38 227.551H50.2601C63.2388 227.551 73.7601 217.03 73.7601 204.051V200.187H10.88V204.051Z" />
			<path d="M79.7601 223.687C79.7601 210.708 90.2814 200.187 103.26 200.187H119.14C132.119 200.187 142.64 210.708 142.64 223.687V227.551H79.7601V223.687Z" />
			<path d="M148.64 204.051C148.64 217.03 159.161 227.551 172.14 227.551H188.02C200.999 227.551 211.52 217.03 211.52 204.051V200.187H148.64V204.051Z" />
			<path d="M217.52 223.687C217.52 210.708 228.041 200.187 241.02 200.187H256.9C269.879 200.187 280.4 210.708 280.4 223.687V227.551H217.52V223.687Z" />
			<path d="M286.4 204.051C286.4 217.03 296.922 227.551 309.9 227.551H325.78C338.759 227.551 349.28 217.03 349.28 204.051V200.187H286.4V204.051Z" />
			<path d="M355.28 223.687C355.28 210.708 365.802 200.187 378.78 200.187H394.66C407.639 200.187 418.16 210.708 418.16 223.687V227.551H355.28V223.687Z" />
			<path d="M424.16 204.051C424.16 217.03 434.682 227.551 447.66 227.551H463.54C476.519 227.551 487.04 217.03 487.04 204.051V200.187H424.16V204.051Z" />
		</mask>
		<path d="M-58 23.5C-58 10.5213 -47.4787 -6.73576e-08 -34.5 0L-18.62 8.24151e-08C-5.64128 1.49773e-07 4.88004 10.5213 4.88004 23.5V27.3645H-58L-58 23.5Z" stroke="#120016" stroke-width="2" mask="url(#path-1-inside-1_41_1182)" />
		<path d="M10.88 3.86445C10.88 16.8431 21.4014 27.3645 34.38 27.3645H50.2601C63.2388 27.3645 73.7601 16.8431 73.7601 3.86446V5.61855e-07L10.88 2.35516e-07V3.86445Z" stroke="#120016" stroke-width="2" mask="url(#path-1-inside-1_41_1182)" />
		<path d="M79.7601 23.5C79.7601 10.5213 90.2814 6.47598e-07 103.26 7.14956e-07L119.14 7.97371e-07C132.119 8.64729e-07 142.64 10.5213 142.64 23.5V27.3645H79.7601V23.5Z" stroke="#120016" stroke-width="2" mask="url(#path-1-inside-1_41_1182)" />
		<path d="M148.64 3.86446C148.64 16.8431 159.161 27.3645 172.14 27.3645H188.02C200.999 27.3645 211.52 16.8431 211.52 3.86446V1.27681e-06L148.64 9.50472e-07V3.86446Z" stroke="#120016" stroke-width="2" mask="url(#path-1-inside-1_41_1182)" />
		<path d="M217.52 23.5C217.52 10.5213 228.041 1.36255e-06 241.02 1.42991e-06L256.9 1.51233e-06C269.879 1.57968e-06 280.4 10.5213 280.4 23.5V27.3645H217.52V23.5Z" stroke="#120016" stroke-width="2" mask="url(#path-1-inside-1_41_1182)" />
		<path d="M286.4 3.86446C286.4 16.8431 296.922 27.3645 309.9 27.3645H325.78C338.759 27.3645 349.28 16.8432 349.28 3.86446V1.99177e-06L286.4 1.66543e-06V3.86446Z" stroke="#120016" stroke-width="2" mask="url(#path-1-inside-1_41_1182)" />
		<path d="M355.28 23.5C355.28 10.5213 365.802 2.07751e-06 378.78 2.14487e-06L394.66 2.22728e-06C407.639 2.29464e-06 418.16 10.5213 418.16 23.5V27.3645H355.28V23.5Z" stroke="#120016" stroke-width="2" mask="url(#path-1-inside-1_41_1182)" />
		<path d="M424.16 3.86446C424.16 16.8431 434.682 27.3645 447.66 27.3645H463.54C476.519 27.3645 487.04 16.8432 487.04 3.86446V2.70672e-06L424.16 2.38038e-06V3.86446Z" stroke="#120016" stroke-width="2" mask="url(#path-1-inside-1_41_1182)" />
		<path d="M-58 37.2289C-58 50.2076 -47.4787 60.7289 -34.5 60.7289H-18.62C-5.64128 60.7289 4.88004 50.2076 4.88004 37.2289V33.3644H-58L-58 37.2289Z" stroke="#120016" stroke-width="2" mask="url(#path-1-inside-1_41_1182)" />
		<path d="M10.88 56.8644C10.88 43.8858 21.4014 33.3644 34.38 33.3644H50.2601C63.2388 33.3644 73.7601 43.8858 73.7601 56.8644V60.7289H10.88V56.8644Z" stroke="#120016" stroke-width="2" mask="url(#path-1-inside-1_41_1182)" />
		<path d="M79.7601 37.2289C79.7601 50.2076 90.2814 60.7289 103.26 60.7289H119.14C132.119 60.7289 142.64 50.2076 142.64 37.2289V33.3644H79.7601V37.2289Z" stroke="#120016" stroke-width="2" mask="url(#path-1-inside-1_41_1182)" />
		<path d="M148.64 56.8644C148.64 43.8858 159.161 33.3644 172.14 33.3644H188.02C200.999 33.3644 211.52 43.8858 211.52 56.8644V60.7289H148.64V56.8644Z" stroke="#120016" stroke-width="2" mask="url(#path-1-inside-1_41_1182)" />
		<path d="M217.52 37.2289C217.52 50.2076 228.041 60.7289 241.02 60.7289H256.9C269.879 60.7289 280.4 50.2076 280.4 37.2289V33.3644H217.52V37.2289Z" stroke="#120016" stroke-width="2" mask="url(#path-1-inside-1_41_1182)" />
		<path d="M286.4 56.8644C286.4 43.8858 296.922 33.3644 309.9 33.3644H325.78C338.759 33.3644 349.28 43.8858 349.28 56.8644V60.7289H286.4V56.8644Z" stroke="#120016" stroke-width="2" mask="url(#path-1-inside-1_41_1182)" />
		<path d="M355.28 37.2289C355.28 50.2076 365.802 60.7289 378.78 60.7289H394.66C407.639 60.7289 418.16 50.2076 418.16 37.2289V33.3644H355.28V37.2289Z" stroke="#120016" stroke-width="2" mask="url(#path-1-inside-1_41_1182)" />
		<path d="M424.16 56.8644C424.16 43.8858 434.682 33.3644 447.66 33.3644H463.54C476.519 33.3644 487.04 43.8858 487.04 56.8644V60.7289H424.16V56.8644Z" stroke="#120016" stroke-width="2" mask="url(#path-1-inside-1_41_1182)" />
		<path d="M-58 90.2289C-58 77.2502 -47.4787 66.7289 -34.5 66.7289H-18.62C-5.64128 66.7289 4.88004 77.2502 4.88004 90.2289V94.0934H-58L-58 90.2289Z" stroke="#120016" stroke-width="2" mask="url(#path-1-inside-1_41_1182)" />
		<path d="M10.88 70.5934C10.88 83.5721 21.4014 94.0934 34.38 94.0934H50.2601C63.2388 94.0934 73.7601 83.5721 73.7601 70.5934V66.7289H10.88V70.5934Z" stroke="#120016" stroke-width="2" mask="url(#path-1-inside-1_41_1182)" />
		<path d="M79.7601 90.2289C79.7601 77.2502 90.2814 66.7289 103.26 66.7289H119.14C132.119 66.7289 142.64 77.2502 142.64 90.2289V94.0934H79.7601V90.2289Z" stroke="#120016" stroke-width="2" mask="url(#path-1-inside-1_41_1182)" />
		<path d="M148.64 70.5934C148.64 83.5721 159.161 94.0934 172.14 94.0934H188.02C200.999 94.0934 211.52 83.5721 211.52 70.5934V66.7289H148.64V70.5934Z" stroke="#120016" stroke-width="2" mask="url(#path-1-inside-1_41_1182)" />
		<path d="M217.52 90.2289C217.52 77.2502 228.041 66.7289 241.02 66.7289H256.9C269.879 66.7289 280.4 77.2502 280.4 90.2289V94.0934H217.52V90.2289Z" stroke="#120016" stroke-width="2" mask="url(#path-1-inside-1_41_1182)" />
		<path d="M286.4 70.5934C286.4 83.5721 296.922 94.0934 309.9 94.0934H325.78C338.759 94.0934 349.28 83.5721 349.28 70.5934V66.7289H286.4V70.5934Z" stroke="#120016" stroke-width="2" mask="url(#path-1-inside-1_41_1182)" />
		<path d="M355.28 90.2289C355.28 77.2502 365.802 66.7289 378.78 66.7289H394.66C407.639 66.7289 418.16 77.2502 418.16 90.2289V94.0934H355.28V90.2289Z" stroke="#120016" stroke-width="2" mask="url(#path-1-inside-1_41_1182)" />
		<path d="M424.16 70.5934C424.16 83.5721 434.682 94.0934 447.66 94.0934H463.54C476.519 94.0934 487.04 83.5721 487.04 70.5934V66.7289H424.16V70.5934Z" stroke="#120016" stroke-width="2" mask="url(#path-1-inside-1_41_1182)" />
		<path d="M-58 103.958C-58 116.937 -47.4787 127.458 -34.5 127.458H-18.62C-5.64128 127.458 4.88004 116.937 4.88004 103.958V100.093H-58L-58 103.958Z" stroke="#120016" stroke-width="2" mask="url(#path-1-inside-1_41_1182)" />
		<path d="M10.88 123.593C10.88 110.615 21.4014 100.093 34.38 100.093H50.2601C63.2388 100.093 73.7601 110.615 73.7601 123.593V127.458H10.88V123.593Z" stroke="#120016" stroke-width="2" mask="url(#path-1-inside-1_41_1182)" />
		<path d="M79.7601 103.958C79.7601 116.937 90.2814 127.458 103.26 127.458H119.14C132.119 127.458 142.64 116.937 142.64 103.958V100.093H79.7601V103.958Z" stroke="#120016" stroke-width="2" mask="url(#path-1-inside-1_41_1182)" />
		<path d="M148.64 123.593C148.64 110.615 159.161 100.093 172.14 100.093H188.02C200.999 100.093 211.52 110.615 211.52 123.593V127.458H148.64V123.593Z" stroke="#120016" stroke-width="2" mask="url(#path-1-inside-1_41_1182)" />
		<path d="M217.52 103.958C217.52 116.937 228.041 127.458 241.02 127.458H256.9C269.879 127.458 280.4 116.937 280.4 103.958V100.093H217.52V103.958Z" stroke="#120016" stroke-width="2" mask="url(#path-1-inside-1_41_1182)" />
		<path d="M286.4 123.593C286.4 110.615 296.922 100.093 309.9 100.093H325.78C338.759 100.093 349.28 110.615 349.28 123.593V127.458H286.4V123.593Z" stroke="#120016" stroke-width="2" mask="url(#path-1-inside-1_41_1182)" />
		<path d="M355.28 103.958C355.28 116.937 365.802 127.458 378.78 127.458H394.66C407.639 127.458 418.16 116.937 418.16 103.958V100.093H355.28V103.958Z" stroke="#120016" stroke-width="2" mask="url(#path-1-inside-1_41_1182)" />
		<path d="M424.16 123.593C424.16 110.615 434.682 100.093 447.66 100.093H463.54C476.519 100.093 487.04 110.615 487.04 123.593V127.458H424.16V123.593Z" stroke="#120016" stroke-width="2" mask="url(#path-1-inside-1_41_1182)" />
		<path d="M-58 156.958C-58 143.979 -47.4787 133.458 -34.5 133.458H-18.62C-5.64128 133.458 4.88004 143.979 4.88004 156.958V160.822H-58L-58 156.958Z" stroke="#120016" stroke-width="2" mask="url(#path-1-inside-1_41_1182)" />
		<path d="M10.88 137.322C10.88 150.301 21.4014 160.822 34.38 160.822H50.2601C63.2388 160.822 73.7601 150.301 73.7601 137.322V133.458H10.88V137.322Z" stroke="#120016" stroke-width="2" mask="url(#path-1-inside-1_41_1182)" />
		<path d="M79.7601 156.958C79.7601 143.979 90.2814 133.458 103.26 133.458H119.14C132.119 133.458 142.64 143.979 142.64 156.958V160.822H79.7601V156.958Z" stroke="#120016" stroke-width="2" mask="url(#path-1-inside-1_41_1182)" />
		<path d="M148.64 137.322C148.64 150.301 159.161 160.822 172.14 160.822H188.02C200.999 160.822 211.52 150.301 211.52 137.322V133.458H148.64V137.322Z" stroke="#120016" stroke-width="2" mask="url(#path-1-inside-1_41_1182)" />
		<path d="M217.52 156.958C217.52 143.979 228.041 133.458 241.02 133.458H256.9C269.879 133.458 280.4 143.979 280.4 156.958V160.822H217.52V156.958Z" stroke="#120016" stroke-width="2" mask="url(#path-1-inside-1_41_1182)" />
		<path d="M286.4 137.322C286.4 150.301 296.922 160.822 309.9 160.822H325.78C338.759 160.822 349.28 150.301 349.28 137.322V133.458H286.4V137.322Z" stroke="#120016" stroke-width="2" mask="url(#path-1-inside-1_41_1182)" />
		<path d="M355.28 156.958C355.28 143.979 365.802 133.458 378.78 133.458H394.66C407.639 133.458 418.16 143.979 418.16 156.958V160.822H355.28V156.958Z" stroke="#120016" stroke-width="2" mask="url(#path-1-inside-1_41_1182)" />
		<path d="M424.16 137.322C424.16 150.301 434.682 160.822 447.66 160.822H463.54C476.519 160.822 487.04 150.301 487.04 137.322V133.458H424.16V137.322Z" stroke="#120016" stroke-width="2" mask="url(#path-1-inside-1_41_1182)" />
		<path d="M-58 170.687C-58 183.665 -47.4787 194.187 -34.5 194.187H-18.62C-5.64128 194.187 4.88004 183.665 4.88004 170.687V166.822H-58L-58 170.687Z" stroke="#120016" stroke-width="2" mask="url(#path-1-inside-1_41_1182)" />
		<path d="M10.88 190.322C10.88 177.344 21.4014 166.822 34.38 166.822H50.2601C63.2388 166.822 73.7601 177.344 73.7601 190.322V194.187H10.88V190.322Z" stroke="#120016" stroke-width="2" mask="url(#path-1-inside-1_41_1182)" />
		<path d="M79.7601 170.687C79.7601 183.665 90.2814 194.187 103.26 194.187H119.14C132.119 194.187 142.64 183.665 142.64 170.687V166.822H79.7601V170.687Z" stroke="#120016" stroke-width="2" mask="url(#path-1-inside-1_41_1182)" />
		<path d="M148.64 190.322C148.64 177.344 159.161 166.822 172.14 166.822H188.02C200.999 166.822 211.52 177.344 211.52 190.322V194.187H148.64V190.322Z" stroke="#120016" stroke-width="2" mask="url(#path-1-inside-1_41_1182)" />
		<path d="M217.52 170.687C217.52 183.665 228.041 194.187 241.02 194.187H256.9C269.879 194.187 280.4 183.665 280.4 170.687V166.822H217.52V170.687Z" stroke="#120016" stroke-width="2" mask="url(#path-1-inside-1_41_1182)" />
		<path d="M286.4 190.322C286.4 177.344 296.922 166.822 309.9 166.822H325.78C338.759 166.822 349.28 177.344 349.28 190.322V194.187H286.4V190.322Z" stroke="#120016" stroke-width="2" mask="url(#path-1-inside-1_41_1182)" />
		<path d="M355.28 170.687C355.28 183.665 365.802 194.187 378.78 194.187H394.66C407.639 194.187 418.16 183.665 418.16 170.687V166.822H355.28V170.687Z" stroke="#120016" stroke-width="2" mask="url(#path-1-inside-1_41_1182)" />
		<path d="M424.16 190.322C424.16 177.344 434.682 166.822 447.66 166.822H463.54C476.519 166.822 487.04 177.344 487.04 190.322V194.187H424.16V190.322Z" stroke="#120016" stroke-width="2" mask="url(#path-1-inside-1_41_1182)" />
		<path d="M-58 223.687C-58 210.708 -47.4787 200.187 -34.5 200.187H-18.62C-5.64128 200.187 4.88004 210.708 4.88004 223.687V227.551H-58L-58 223.687Z" stroke="#120016" stroke-width="2" mask="url(#path-1-inside-1_41_1182)" />
		<path d="M10.88 204.051C10.88 217.03 21.4014 227.551 34.38 227.551H50.2601C63.2388 227.551 73.7601 217.03 73.7601 204.051V200.187H10.88V204.051Z" stroke="#120016" stroke-width="2" mask="url(#path-1-inside-1_41_1182)" />
		<path d="M79.7601 223.687C79.7601 210.708 90.2814 200.187 103.26 200.187H119.14C132.119 200.187 142.64 210.708 142.64 223.687V227.551H79.7601V223.687Z" stroke="#120016" stroke-width="2" mask="url(#path-1-inside-1_41_1182)" />
		<path d="M148.64 204.051C148.64 217.03 159.161 227.551 172.14 227.551H188.02C200.999 227.551 211.52 217.03 211.52 204.051V200.187H148.64V204.051Z" stroke="#120016" stroke-width="2" mask="url(#path-1-inside-1_41_1182)" />
		<path d="M217.52 223.687C217.52 210.708 228.041 200.187 241.02 200.187H256.9C269.879 200.187 280.4 210.708 280.4 223.687V227.551H217.52V223.687Z" stroke="#120016" stroke-width="2" mask="url(#path-1-inside-1_41_1182)" />
		<path d="M286.4 204.051C286.4 217.03 296.922 227.551 309.9 227.551H325.78C338.759 227.551 349.28 217.03 349.28 204.051V200.187H286.4V204.051Z" stroke="#120016" stroke-width="2" mask="url(#path-1-inside-1_41_1182)" />
		<path d="M355.28 223.687C355.28 210.708 365.802 200.187 378.78 200.187H394.66C407.639 200.187 418.16 210.708 418.16 223.687V227.551H355.28V223.687Z" stroke="#120016" stroke-width="2" mask="url(#path-1-inside-1_41_1182)" />
		<path d="M424.16 204.051C424.16 217.03 434.682 227.551 447.66 227.551H463.54C476.519 227.551 487.04 217.03 487.04 204.051V200.187H424.16V204.051Z" stroke="#120016" stroke-width="2" mask="url(#path-1-inside-1_41_1182)" />
	</g>
</svg>
